<?xml version="1.0" encoding="iso-8859-1"?>
<!-- Generator: Adobe Illustrator 24.1.0, SVG Export Plug-In . SVG Version: 6.00 Build 0)  -->
<svg version="1.1" xmlns="http://www.w3.org/2000/svg" xmlns:xlink="http://www.w3.org/1999/xlink" x="0px" y="0px"
	 viewBox="0 0 512 512" style="enable-background:new 0 0 512 512;" xml:space="preserve">
<g id="_x34_0_x2C__Glass_x2C__loupe_x2C__magnifying_x2C__search_x2C__scan">
	<g>
		<g>
			<path d="M309.129,64.749c-76.161,0-138.122,61.961-138.122,138.122s61.961,138.122,138.122,138.122
				s138.122-61.961,138.122-138.122S385.29,64.749,309.129,64.749z M309.129,319.744c-64.444,0-116.873-52.429-116.873-116.873
				S244.685,85.999,309.129,85.999s116.873,52.429,116.873,116.873S373.573,319.744,309.129,319.744z"/>
			<path d="M310.294,1.001c-110.67,0-200.707,90.036-200.707,200.706c0,38.042,10.639,73.646,29.098,103.994l-34.147,34.146
				c-0.004,0.003-0.007,0.006-0.011,0.01c-0.003,0.004-0.006,0.007-0.01,0.011L15.014,429.37c-18.686,18.687-18.684,48.931,0,67.616
				c18.687,18.686,48.931,18.684,67.616,0l89.496-89.496c0.006-0.006,0.013-0.011,0.018-0.017c0.006-0.006,0.011-0.012,0.017-0.018
				l34.139-34.139c30.347,18.459,65.952,29.098,103.994,29.098c110.67,0,200.706-90.037,200.706-200.707
				S420.964,1.001,310.294,1.001z M67.603,481.959c-10.381,10.381-27.183,10.381-37.563,0c-10.381-10.381-10.38-27.182-0.001-37.563
				l82.001-82.001l37.564,37.564L67.603,481.959z M164.631,384.933l-37.564-37.564l23.838-23.838
				c10.812,14.113,23.451,26.751,37.564,37.564L164.631,384.933z M310.294,381.164c-98.953,0-179.457-80.504-179.457-179.457
				c0-98.953,80.504-179.457,179.457-179.457c98.953,0,179.457,80.504,179.457,179.457
				C489.75,300.66,409.247,381.164,310.294,381.164z"/>
		</g>
	</g>
</g>
<g id="Layer_1">
</g>
</svg>
